<?xml version="1.0" encoding="UTF-8" standalone="no"?>
<!DOCTYPE svg PUBLIC "-//W3C//DTD SVG 20010904//EN"
              "http://www.w3.org/TR/2001/REC-SVG-20010904/DTD/svg10.dtd">

<svg xmlns="http://www.w3.org/2000/svg"
     width="3.60667in" height="3.60667in"
     viewBox="0 0 1082 1082">
  <path id="Fergesch Path"
        fill="none" stroke="black" stroke-width="1"
        d="M 35.78,1042.00
           C 35.78,1042.00 35.78,908.00 35.78,908.00
             35.78,908.00 127.55,908.00 127.55,908.00
             127.55,908.00 127.55,931.00 127.55,931.00
             127.55,931.00 62.81,931.00 62.81,931.00
             62.81,931.00 62.81,962.00 62.81,962.00
             62.81,962.00 118.70,962.00 118.70,962.00
             118.70,962.00 118.70,985.00 118.70,985.00
             118.70,985.00 62.81,985.00 62.81,985.00
             62.81,985.00 62.81,1042.00 62.81,1042.00
             62.81,1042.00 35.78,1042.00 35.78,1042.00 Z
           M 149.61,1042.00
           C 149.61,1042.00 149.61,908.00 149.61,908.00
             149.61,908.00 248.86,908.00 248.86,908.00
             248.86,908.00 248.86,931.00 248.86,931.00
             248.86,931.00 176.62,931.00 176.62,931.00
             176.62,931.00 176.62,960.00 176.62,960.00
             176.62,960.00 243.83,960.00 243.83,960.00
             243.83,960.00 243.83,983.00 243.83,983.00
             243.83,983.00 176.62,983.00 176.62,983.00
             176.62,983.00 176.62,1019.00 176.62,1019.00
             176.62,1019.00 251.42,1019.00 251.42,1019.00
             251.42,1019.00 251.42,1042.00 251.42,1042.00
             251.42,1042.00 149.61,1042.00 149.61,1042.00 Z
           M 274.70,1042.00
           C 274.70,1042.00 274.70,908.00 274.70,908.00
             274.70,908.00 331.58,908.00 331.58,908.00
             345.88,908.00 356.27,909.20 362.75,911.59
             369.24,913.99 374.43,918.26 378.33,924.39
             382.22,930.52 384.17,937.53 384.17,945.42
             384.17,955.43 381.22,963.70 375.31,970.23
             369.41,976.76 360.59,980.87 348.84,982.56
             354.69,985.99 359.51,989.76 363.31,993.86
             367.12,997.96 372.25,1005.25 378.70,1015.72
             378.70,1015.72 395.05,1042.00 395.05,1042.00
             395.05,1042.00 362.72,1042.00 362.72,1042.00
             362.72,1042.00 343.17,1012.81 343.17,1012.81
             336.23,1002.39 331.48,995.81 328.92,993.09
             326.37,990.38 323.66,988.52 320.80,987.52
             317.94,986.51 313.41,986.00 307.20,986.00
             307.20,986.00 301.72,986.00 301.72,986.00
             301.72,986.00 301.72,1042.00 301.72,1042.00
             301.72,1042.00 274.70,1042.00 274.70,1042.00 Z
           M 301.72,963.00
           C 301.72,963.00 321.72,963.00 321.72,963.00
             334.69,963.00 342.78,962.48 346.00,961.45
             349.23,960.42 351.75,958.65 353.58,956.12
             355.41,953.59 356.33,950.44 356.33,946.66
             356.33,942.42 355.12,939.00 352.72,936.39
             350.31,933.78 346.91,932.12 342.53,931.44
             340.34,931.15 333.77,931.00 322.81,931.00
             322.81,931.00 301.72,931.00 301.72,931.00
             301.72,931.00 301.72,963.00 301.72,963.00 Z
           M 471.88,993.00
           C 471.88,993.00 471.88,970.00 471.88,970.00
             471.88,970.00 530.12,970.00 530.12,970.00
             530.12,970.00 530.12,1023.36 530.12,1023.36
             524.47,1028.82 516.27,1033.62 505.52,1037.78
             494.77,1041.93 483.89,1044.00 472.88,1044.00
             458.88,1044.00 446.67,1041.07 436.27,1035.22
             425.86,1029.37 418.04,1020.99 412.80,1010.09
             407.57,999.20 404.95,987.35 404.95,974.55
             404.95,960.65 407.88,948.30 413.72,937.50
             419.56,926.70 428.11,918.41 439.38,912.64
             447.96,908.21 458.64,906.00 471.42,906.00
             488.04,906.00 501.02,909.54 510.36,916.62
             519.70,923.71 525.71,933.50 528.39,946.00
             528.39,946.00 501.55,951.00 501.55,951.00
             499.66,944.20 496.11,938.84 490.91,934.91
             485.71,930.97 479.21,929.00 471.42,929.00
             459.61,929.00 450.22,932.73 443.25,940.20
             436.28,947.67 432.80,958.76 432.80,973.45
             432.80,989.30 436.33,1001.18 443.39,1009.11
             450.45,1017.04 459.70,1021.00 471.14,1021.00
             476.80,1021.00 482.48,1019.91 488.17,1017.72
             493.86,1015.52 498.74,1012.87 502.83,1009.75
             502.83,1009.75 502.83,993.00 502.83,993.00
             502.83,993.00 471.88,993.00 471.88,993.00 Z
           M 554.61,1042.00
           C 554.61,1042.00 554.61,908.00 554.61,908.00
             554.61,908.00 653.86,908.00 653.86,908.00
             653.86,908.00 653.86,931.00 653.86,931.00
             653.86,931.00 581.62,931.00 581.62,931.00
             581.62,931.00 581.62,960.00 581.62,960.00
             581.62,960.00 648.83,960.00 648.83,960.00
             648.83,960.00 648.83,983.00 648.83,983.00
             648.83,983.00 581.62,983.00 581.62,983.00
             581.62,983.00 581.62,1019.00 581.62,1019.00
             581.62,1019.00 656.42,1019.00 656.42,1019.00
             656.42,1019.00 656.42,1042.00 656.42,1042.00
             656.42,1042.00 554.61,1042.00 554.61,1042.00 Z
           M 672.75,999.00
           C 672.75,999.00 699.05,996.00 699.05,996.00
             700.63,1004.61 703.84,1010.92 708.67,1014.95
             713.52,1018.98 720.05,1021.00 728.27,1021.00
             736.97,1021.00 743.53,1019.20 747.94,1015.59
             752.35,1011.99 754.56,1007.78 754.56,1002.95
             754.56,999.86 753.63,997.23 751.78,995.05
             749.93,992.87 746.68,990.98 742.05,989.38
             738.89,988.29 731.68,986.36 720.42,983.56
             705.93,980.00 695.77,975.60 689.92,970.36
             681.70,962.98 677.59,954.00 677.59,943.39
             677.59,936.57 679.52,930.19 683.39,924.25
             687.25,918.30 692.82,913.78 700.09,910.67
             707.38,907.56 716.16,906.00 726.45,906.00
             743.25,906.00 755.90,909.73 764.39,917.17
             772.88,924.62 777.34,934.56 777.77,947.00
             777.77,947.00 750.73,948.00 750.73,948.00
             749.58,941.25 747.10,936.40 743.30,933.44
             739.49,930.48 733.79,929.00 726.17,929.00
             718.32,929.00 712.17,930.59 707.73,933.77
             704.87,935.81 703.44,938.54 703.44,941.95
             703.44,945.07 704.77,947.73 707.45,949.95
             710.86,952.77 719.13,955.71 732.28,958.80
             745.44,961.88 755.16,965.07 761.45,968.36
             767.75,971.65 772.69,976.15 776.25,981.86
             779.81,987.56 781.59,994.60 781.59,1002.98
             781.59,1010.59 779.46,1017.71 775.20,1024.36
             770.94,1031.00 764.91,1035.93 757.12,1039.16
             749.33,1042.38 739.62,1044.00 728.00,1044.00
             711.07,1044.00 698.07,1040.17 689.00,1032.52
             679.93,1024.85 674.51,1013.68 672.75,999.00 Z
           M 890.25,993.00
           C 890.25,993.00 916.45,1001.00 916.45,1001.00
             912.43,1015.54 905.75,1026.34 896.41,1033.41
             887.06,1040.47 875.21,1044.00 860.84,1044.00
             843.07,1044.00 828.46,1037.95 817.02,1025.84
             805.58,1013.73 799.86,997.18 799.86,976.19
             799.86,953.97 805.61,936.72 817.11,924.44
             828.62,912.15 843.75,906.00 862.50,906.00
             878.88,906.00 892.17,910.82 902.39,920.45
             908.48,926.15 913.05,934.34 916.09,945.00
             916.09,945.00 889.34,951.00 889.34,951.00
             887.76,944.21 884.46,938.84 879.44,934.91
             874.41,930.97 868.31,929.00 861.12,929.00
             851.20,929.00 843.14,932.55 836.97,939.66
             830.79,946.76 827.70,958.27 827.70,974.19
             827.70,991.06 830.74,1003.09 836.83,1010.25
             842.92,1017.42 850.84,1021.00 860.58,1021.00
             867.75,1021.00 873.93,1018.75 879.11,1014.25
             884.29,1009.75 888.00,1002.67 890.25,993.00 Z
           M 939.70,1042.00
           C 939.70,1042.00 939.70,908.00 939.70,908.00
             939.70,908.00 966.72,908.00 966.72,908.00
             966.72,908.00 966.72,961.00 966.72,961.00
             966.72,961.00 1019.69,961.00 1019.69,961.00
             1019.69,961.00 1019.69,908.00 1019.69,908.00
             1019.69,908.00 1046.70,908.00 1046.70,908.00
             1046.70,908.00 1046.70,1042.00 1046.70,1042.00
             1046.70,1042.00 1019.69,1042.00 1019.69,1042.00
             1019.69,1042.00 1019.69,984.00 1019.69,984.00
             1019.69,984.00 966.72,984.00 966.72,984.00
             966.72,984.00 966.72,1042.00 966.72,1042.00
             966.72,1042.00 939.70,1042.00 939.70,1042.00 Z" />
</svg>
