<?xml version="1.0" encoding="UTF-8" standalone="no"?>
<!DOCTYPE svg PUBLIC "-//W3C//DTD SVG 20010904//EN"
              "http://www.w3.org/TR/2001/REC-SVG-20010904/DTD/svg10.dtd">

<svg xmlns="http://www.w3.org/2000/svg"
     width="3.54in" height="2.86667in"
     viewBox="0 0 1062 860">
  <path id="Nova Head Path"
        fill="none" stroke="black" stroke-width="1"
        d="M 249.75,250.75
           C 249.75,250.75 243.75,274.75 243.75,274.75
             243.75,274.75 237.75,292.75 237.75,292.75
             237.75,292.75 233.25,315.25 233.25,315.25
             233.25,315.25 230.25,333.25 230.25,333.25
             230.25,333.25 227.25,351.25 227.25,351.25
             227.25,351.25 224.25,372.25 224.25,372.25
             224.25,372.25 222.75,385.75 222.75,385.75
             222.75,385.75 222.75,403.75 222.75,403.75
             222.75,403.75 224.25,427.75 224.25,427.75
             224.25,427.75 224.25,453.25 224.25,453.25
             224.25,453.25 224.25,477.25 224.25,477.25
             224.25,477.25 228.75,502.75 228.75,502.75
             228.75,502.75 234.75,522.25 234.75,522.25
             234.75,522.25 233.25,541.75 233.25,541.75
             233.25,541.75 230.25,565.75 230.25,565.75
             230.25,565.75 227.25,588.25 227.25,588.25
             227.25,588.25 224.25,612.25 224.25,612.25
             224.25,612.25 218.25,636.25 218.25,636.25
             218.25,636.25 213.75,657.25 213.75,657.25
             213.75,657.25 213.75,678.25 213.75,678.25
             213.75,678.25 216.75,693.25 216.75,693.25
             216.75,693.25 209.25,708.25 209.25,708.25
             209.25,708.25 204.75,724.75 204.75,724.75
             204.75,724.75 204.75,739.75 204.75,739.75
             204.75,739.75 210.75,754.75 210.75,754.75
             210.75,754.75 222.75,768.25 222.75,768.25
             222.75,768.25 240.75,772.75 240.75,772.75
             240.75,772.75 252.75,778.75 252.75,778.75
             252.75,778.75 273.75,787.75 273.75,787.75
             273.75,787.75 294.75,807.25 294.75,807.25
             294.75,807.25 309.75,822.25 309.75,822.25
             309.75,822.25 329.25,828.25 329.25,828.25
             329.25,828.25 344.25,822.25 344.25,822.25
             344.25,822.25 357.75,816.25 357.75,816.25
             357.75,816.25 372.75,816.25 372.75,816.25
             372.75,816.25 390.75,829.75 390.75,829.75
             390.75,829.75 402.75,838.75 402.75,838.75
             402.75,838.75 416.25,850.75 416.25,850.75
             416.25,850.75 425.25,859.75 425.25,859.75
             425.25,859.75 441.75,858.25 441.75,858.25
             441.75,858.25 454.75,853.75 454.75,853.75
             454.75,853.75 471.75,844.75 470.75,844.75
             469.75,844.75 484.75,833.75 484.75,833.75
             484.75,833.75 496.75,824.75 496.75,824.75
             496.75,824.75 508.75,812.75 508.75,812.75
             508.75,812.75 522.75,801.75 522.75,801.75
             522.75,801.75 534.75,792.75 534.75,792.75
             534.75,792.75 547.75,777.75 547.75,777.75
             547.75,777.75 556.75,761.75 556.75,761.75
             556.75,761.75 564.75,746.75 564.75,746.75
             564.75,746.75 572.75,731.75 572.75,731.75
             572.75,731.75 580.75,716.75 580.75,716.75
             580.75,716.75 589.75,699.75 589.75,699.75
             589.75,699.75 597.75,682.75 597.75,682.75
             597.75,682.75 607.75,673.75 607.75,673.75
             607.75,673.75 620.75,663.75 620.75,663.75
             620.75,663.75 631.75,660.75 631.75,660.75
             631.75,660.75 647.75,654.75 647.75,654.75
             647.75,654.75 661.75,647.75 661.75,647.75
             661.75,647.75 676.75,637.75 676.75,637.75
             676.75,637.75 686.75,627.75 686.75,627.75
             686.75,627.75 698.75,616.75 698.75,616.75
             698.75,616.75 710.75,605.75 710.75,605.75
             710.75,605.75 720.75,591.75 720.75,591.75
             720.75,591.75 726.75,579.75 726.75,579.75
             726.75,579.75 737.75,562.75 737.75,562.75
             737.75,562.75 743.75,547.75 743.75,547.75
             743.75,547.75 752.75,530.75 752.75,530.75
             752.75,530.75 760.75,519.75 760.75,519.75
             760.75,519.75 767.75,510.75 767.75,510.75
             767.75,510.75 772.75,500.75 772.75,500.75
             772.75,500.75 779.75,493.75 779.75,493.75
             779.75,493.75 785.75,486.75 785.75,486.75
             785.75,486.75 795.75,486.75 795.75,486.75
             795.75,486.75 807.75,488.75 807.75,488.75
             807.75,488.75 817.75,489.75 817.75,489.75
             817.75,489.75 825.75,496.75 825.75,496.75
             825.75,496.75 836.75,499.75 836.75,499.75
             836.75,499.75 844.75,500.75 844.75,500.75
             844.75,500.75 855.75,503.75 855.75,503.75
             855.75,503.75 864.75,509.75 864.75,509.75
             864.75,509.75 869.75,520.75 869.75,520.75
             869.75,520.75 877.75,529.75 877.75,529.75
             877.75,529.75 891.75,529.75 891.75,529.75
             891.75,529.75 900.75,528.75 900.75,528.75
             900.75,528.75 911.75,526.75 911.75,526.75
             911.75,526.75 920.75,526.75 920.75,526.75
             920.75,526.75 929.75,534.75 929.75,534.75
             929.75,534.75 937.75,542.75 937.75,542.75
             937.75,542.75 947.75,554.75 947.75,554.75
             947.75,554.75 953.75,564.75 953.75,564.75
             953.75,564.75 961.75,570.75 961.75,570.75
             961.75,570.75 967.75,579.75 967.75,579.75
             967.75,579.75 977.75,591.75 977.75,591.75
             977.75,591.75 984.75,599.75 984.75,599.75
             984.75,599.75 993.75,609.75 993.75,609.75
             993.75,609.75 1003.75,620.75 1003.75,620.75
             1003.75,620.75 1012.75,629.75 1012.75,629.75
             1012.75,629.75 1024.75,637.75 1024.75,637.75
             1024.75,637.75 1035.75,640.75 1035.75,640.75
             1035.75,640.75 1045.75,637.75 1045.75,637.75
             1045.75,637.75 1052.75,626.75 1052.75,626.75
             1052.75,626.75 1058.75,611.75 1058.75,611.75
             1058.75,611.75 1061.75,598.75 1061.75,598.75
             1061.75,598.75 1061.75,583.75 1061.75,583.75
             1061.75,583.75 1057.75,567.75 1057.75,567.75
             1057.75,567.75 1051.75,556.75 1051.75,556.75
             1051.75,556.75 1044.75,544.75 1044.75,544.75
             1044.75,544.75 1037.75,532.75 1037.75,532.75
             1037.75,532.75 1029.75,523.75 1029.75,523.75
             1029.75,523.75 1020.75,512.75 1020.75,512.75
             1020.75,512.75 1013.75,498.75 1013.75,498.75
             1013.75,498.75 1007.75,487.75 1007.75,487.75
             1007.75,487.75 1001.75,474.75 1001.75,474.75
             1001.75,474.75 996.75,462.75 996.75,462.75
             996.75,462.75 989.75,447.75 989.75,447.75
             989.75,447.75 984.75,432.75 984.75,432.75
             984.75,432.75 977.75,417.75 977.75,417.75
             977.75,417.75 970.75,398.75 970.75,398.75
             970.75,398.75 962.75,377.75 962.75,377.75
             962.75,377.75 955.75,359.75 955.75,359.75
             955.75,359.75 949.75,341.75 949.75,341.75
             949.75,341.75 946.75,327.75 946.75,327.75
             946.75,327.75 944.75,314.75 944.75,314.75
             944.75,314.75 941.75,299.75 941.75,299.75
             941.75,299.75 933.75,288.75 933.75,288.75
             933.75,288.75 924.75,281.75 924.75,281.75
             924.75,281.75 917.75,275.75 917.75,275.75
             917.75,275.75 906.75,270.75 906.75,270.75
             906.75,270.75 895.75,265.75 895.75,265.75
             895.75,265.75 887.75,260.75 887.75,260.75
             887.75,260.75 880.75,254.75 880.75,254.75
             880.75,254.75 873.75,247.75 873.75,247.75
             873.75,247.75 863.75,242.75 863.75,242.75
             863.75,242.75 854.75,239.75 854.75,239.75
             854.75,239.75 849.75,231.75 849.75,231.75
             849.75,231.75 840.75,228.75 840.75,228.75
             840.75,228.75 831.75,228.75 831.75,228.75
             831.75,228.75 826.75,227.50 826.75,227.50
             826.75,227.50 830.75,225.25 830.75,225.25
             830.75,225.25 837.50,224.50 837.50,224.50
             837.50,224.50 842.25,224.25 842.25,224.25
             842.25,224.25 835.00,221.75 835.00,221.75
             835.00,221.75 840.00,219.75 840.00,219.75
             840.00,219.75 823.75,219.75 823.75,219.75
             823.75,219.75 826.25,215.75 826.25,215.75
             826.25,215.75 819.75,216.00 819.75,216.00
             819.75,216.00 825.50,211.25 825.50,211.25
             825.50,211.25 817.25,211.75 817.25,212.00
             817.25,212.25 810.50,217.00 810.25,217.00
             810.00,217.00 812.50,210.00 812.50,210.00
             812.50,210.00 801.75,212.00 801.75,212.00
             801.75,212.00 790.75,218.25 790.75,218.25
             790.75,218.25 780.75,227.50 780.75,227.50
             780.75,227.50 758.75,226.00 758.75,226.00
             758.75,226.00 752.00,223.25 752.00,223.25
             752.00,223.25 735.50,204.25 735.50,204.25
             735.50,204.25 724.75,197.08 724.75,197.08
             724.75,197.08 715.42,189.75 715.42,189.75
             715.42,189.75 703.42,178.42 703.42,178.42
             703.42,178.42 692.08,172.42 692.08,172.42
             692.08,172.42 678.08,165.75 678.08,165.75
             678.08,165.75 669.42,159.75 669.42,159.75
             669.42,159.75 656.75,152.42 656.75,152.42
             656.75,152.42 644.75,146.42 644.75,146.42
             644.75,146.42 634.75,137.75 634.75,137.75
             634.75,137.75 627.25,133.25 627.25,133.25
             627.25,133.25 617.25,128.75 617.25,128.75
             617.25,128.75 603.25,121.75 603.25,121.75
             603.25,121.75 585.75,115.75 585.75,115.75
             585.75,115.75 564.75,110.25 564.75,110.25
             564.75,110.25 545.25,105.75 545.25,105.75
             545.25,105.75 534.75,103.25 534.75,103.25
             534.75,103.25 524.25,99.75 524.25,99.75
             524.25,99.75 513.25,96.75 513.25,96.75
             513.25,96.75 501.25,94.75 501.25,94.75
             501.25,94.75 489.25,92.25 489.25,92.25
             489.25,92.25 475.25,89.75 475.25,89.75
             475.25,89.75 468.25,89.25 468.25,89.25
             468.25,89.25 466.25,83.25 466.25,83.25
             466.25,83.25 458.25,84.25 458.25,84.25
             458.25,84.25 453.75,70.75 453.75,70.75
             453.75,70.75 450.75,61.75 450.75,61.75
             450.75,61.75 454.25,53.25 454.25,53.25
             454.25,53.25 455.25,49.25 454.75,49.25
             454.25,49.25 446.75,45.25 446.25,45.25
             445.75,45.25 440.25,47.75 440.25,47.75
             440.25,47.75 430.75,43.25 430.75,43.25
             430.75,43.25 414.75,39.25 414.75,39.25
             414.75,39.25 403.75,34.75 403.75,34.75
             403.75,34.75 392.75,28.25 392.75,28.25
             392.75,28.25 381.25,28.25 381.25,28.25
             381.25,28.25 369.75,23.75 369.75,23.75
             369.75,23.75 354.25,17.75 354.25,17.75
             354.25,17.75 339.75,11.75 339.75,11.75
             339.75,11.75 322.75,5.75 322.75,5.75
             322.75,5.75 309.25,2.25 309.25,2.25
             309.25,2.25 301.75,0.25 301.75,0.25
             301.75,0.25 295.75,4.25 295.75,4.25
             295.75,4.25 289.75,9.75 289.75,9.75
             289.75,9.75 279.25,10.75 279.25,10.75
             279.25,10.75 273.25,14.25 273.25,14.25
             273.25,14.25 264.25,18.75 264.25,18.75
             264.25,18.75 258.25,21.25 258.25,21.25
             258.25,21.25 242.75,24.75 242.75,24.75
             242.75,24.75 229.25,26.25 229.25,26.25
             229.25,26.25 212.75,30.25 212.75,30.25
             212.75,30.25 203.75,33.25 203.75,33.25
             203.75,33.25 192.75,38.75 192.75,38.75
             192.75,38.75 182.75,42.25 182.75,42.25
             182.75,42.25 171.75,48.75 171.75,48.75
             171.75,48.75 161.25,55.75 161.25,55.75
             161.25,55.75 152.75,62.75 152.75,62.75
             152.75,62.75 146.25,67.75 146.25,67.75
             146.25,67.75 140.25,71.25 140.25,71.25
             140.25,71.25 133.75,78.25 133.75,78.25
             133.75,78.25 129.75,85.25 129.75,85.25
             129.75,85.25 124.25,92.25 124.25,92.25
             124.25,92.25 115.75,96.25 115.75,96.25
             115.75,96.25 108.25,103.25 108.25,103.25
             108.25,103.25 98.75,109.25 98.75,109.25
             98.75,109.25 92.25,115.25 92.25,115.25
             92.25,115.25 82.25,120.75 82.25,120.75
             82.25,120.75 72.75,123.75 72.75,123.75
             72.75,123.75 62.75,128.75 62.75,128.75
             62.75,128.75 53.25,135.25 53.25,135.25
             53.25,135.25 44.25,142.75 44.25,142.75
             44.25,142.75 32.75,149.75 32.75,149.75
             32.75,149.75 23.25,156.75 23.25,156.75
             23.25,156.75 12.75,165.25 12.75,165.25
             12.75,165.25 4.25,173.75 4.25,173.75
             4.25,173.75 0.25,181.75 0.25,181.75
             0.25,181.75 0.25,187.75 0.25,187.75
             0.25,187.75 3.25,191.75 3.25,191.75
             3.25,191.75 9.25,194.75 9.25,194.75
             9.25,194.75 18.25,193.25 18.25,193.25
             18.25,193.25 30.25,188.25 30.25,188.25
             30.25,188.25 36.75,182.75 36.75,182.75
             36.75,182.75 42.75,179.25 42.75,179.25
             42.75,179.25 52.25,174.25 52.25,174.25
             52.25,174.25 59.75,170.25 59.75,170.25
             59.75,170.25 68.25,163.75 68.25,163.75
             68.25,163.75 74.75,162.75 74.75,162.75
             74.75,162.75 82.75,165.25 82.75,165.25
             82.75,165.25 91.25,169.25 91.25,169.25
             91.25,169.25 95.25,173.75 95.25,173.75
             95.25,173.75 102.75,178.25 102.75,178.25
             102.75,178.25 108.75,183.25 108.75,183.25
             108.75,183.25 115.25,190.75 115.25,190.75
             115.25,190.75 123.25,195.75 123.25,195.75
             123.25,195.75 131.25,199.75 130.75,199.75
             130.25,199.75 138.25,200.75 138.25,200.75
             138.25,200.75 146.75,196.25 146.75,196.25
             146.75,196.25 151.75,192.25 151.75,192.25
             151.75,192.25 156.25,195.75 156.25,195.75
             156.25,195.75 163.75,197.75 163.75,197.75
             163.75,197.75 168.75,202.75 168.75,202.75
             168.75,202.75 174.75,205.25 174.75,205.25
             174.75,205.25 179.75,207.75 179.75,207.75
             179.75,207.75 179.75,212.25 179.75,212.25
             179.75,212.25 185.75,213.25 185.75,213.25
             185.75,213.25 195.25,215.25 195.25,215.25
             195.25,215.25 203.25,218.25 203.25,218.25
             203.25,218.25 208.75,218.25 208.75,218.25
             208.75,218.25 211.25,225.75 211.25,225.75
             211.25,225.75 213.25,230.25 213.25,230.25
             213.25,230.25 220.25,234.25 220.75,234.25
             221.25,234.25 229.25,234.75 229.25,234.75
             229.25,234.75 240.75,236.25 240.75,236.25
             240.75,236.25 244.25,240.25 244.25,240.25
             244.25,240.25 247.25,246.25 247.25,246.25
             247.25,246.25 249.75,250.75 249.75,250.75 Z" />
</svg>
