<?xml version="1.0" encoding="UTF-8" standalone="no"?>
<!DOCTYPE svg PUBLIC "-//W3C//DTD SVG 20010904//EN"
              "http://www.w3.org/TR/2001/REC-SVG-20010904/DTD/svg10.dtd">

<svg xmlns="http://www.w3.org/2000/svg"
     width="3.60667in" height="3.60667in"
     viewBox="0 0 1082 1082">
  <path id="Nova Head Path"
        fill="none" stroke="#c47e7e " stroke-width="10"
        d="M 259.50,259.50
           C 259.50,259.50 253.50,283.50 253.50,283.50
             253.50,283.50 247.50,301.50 247.50,301.50
             247.50,301.50 243.00,324.00 243.00,324.00
             243.00,324.00 240.00,342.00 240.00,342.00
             240.00,342.00 237.00,360.00 237.00,360.00
             237.00,360.00 234.00,381.00 234.00,381.00
             234.00,381.00 232.50,394.50 232.50,394.50
             232.50,394.50 232.50,412.50 232.50,412.50
             232.50,412.50 234.00,436.50 234.00,436.50
             234.00,436.50 234.00,462.00 234.00,462.00
             234.00,462.00 234.00,486.00 234.00,486.00
             234.00,486.00 238.50,511.50 238.50,511.50
             238.50,511.50 244.50,531.00 244.50,531.00
             244.50,531.00 243.00,550.50 243.00,550.50
             243.00,550.50 240.00,574.50 240.00,574.50
             240.00,574.50 237.00,597.00 237.00,597.00
             237.00,597.00 234.00,621.00 234.00,621.00
             234.00,621.00 228.00,645.00 228.00,645.00
             228.00,645.00 223.50,666.00 223.50,666.00
             223.50,666.00 223.50,687.00 223.50,687.00
             223.50,687.00 226.50,702.00 226.50,702.00
             226.50,702.00 219.00,717.00 219.00,717.00
             219.00,717.00 214.50,733.50 214.50,733.50
             214.50,733.50 214.50,748.50 214.50,748.50
             214.50,748.50 220.50,763.50 220.50,763.50
             220.50,763.50 232.50,777.00 232.50,777.00
             232.50,777.00 250.50,781.50 250.50,781.50
             250.50,781.50 262.50,787.50 262.50,787.50
             262.50,787.50 283.50,796.50 283.50,796.50
             283.50,796.50 304.50,816.00 304.50,816.00
             304.50,816.00 319.50,831.00 319.50,831.00
             319.50,831.00 339.00,837.00 339.00,837.00
             339.00,837.00 354.00,831.00 354.00,831.00
             354.00,831.00 367.50,825.00 367.50,825.00
             367.50,825.00 382.50,825.00 382.50,825.00
             382.50,825.00 400.50,838.50 400.50,838.50
             400.50,838.50 412.50,847.50 412.50,847.50
             412.50,847.50 426.00,859.50 426.00,859.50
             426.00,859.50 435.00,868.50 435.00,868.50
             435.00,868.50 451.50,867.00 451.50,867.00
             451.50,867.00 464.50,862.50 464.50,862.50
             464.50,862.50 481.50,853.50 480.50,853.50
             479.50,853.50 494.50,842.50 494.50,842.50
             494.50,842.50 506.50,833.50 506.50,833.50
             506.50,833.50 518.50,821.50 518.50,821.50
             518.50,821.50 532.50,810.50 532.50,810.50
             532.50,810.50 544.50,801.50 544.50,801.50
             544.50,801.50 557.50,786.50 557.50,786.50
             557.50,786.50 566.50,770.50 566.50,770.50
             566.50,770.50 574.50,755.50 574.50,755.50
             574.50,755.50 582.50,740.50 582.50,740.50
             582.50,740.50 590.50,725.50 590.50,725.50
             590.50,725.50 599.50,708.50 599.50,708.50
             599.50,708.50 607.50,691.50 607.50,691.50
             607.50,691.50 617.50,682.50 617.50,682.50
             617.50,682.50 630.50,672.50 630.50,672.50
             630.50,672.50 641.50,669.50 641.50,669.50
             641.50,669.50 657.50,663.50 657.50,663.50
             657.50,663.50 671.50,656.50 671.50,656.50
             671.50,656.50 686.50,646.50 686.50,646.50
             686.50,646.50 696.50,636.50 696.50,636.50
             696.50,636.50 708.50,625.50 708.50,625.50
             708.50,625.50 720.50,614.50 720.50,614.50
             720.50,614.50 730.50,600.50 730.50,600.50
             730.50,600.50 736.50,588.50 736.50,588.50
             736.50,588.50 747.50,571.50 747.50,571.50
             747.50,571.50 753.50,556.50 753.50,556.50
             753.50,556.50 762.50,539.50 762.50,539.50
             762.50,539.50 770.50,528.50 770.50,528.50
             770.50,528.50 777.50,519.50 777.50,519.50
             777.50,519.50 782.50,509.50 782.50,509.50
             782.50,509.50 789.50,502.50 789.50,502.50
             789.50,502.50 795.50,495.50 795.50,495.50
             795.50,495.50 805.50,495.50 805.50,495.50
             805.50,495.50 817.50,497.50 817.50,497.50
             817.50,497.50 827.50,498.50 827.50,498.50
             827.50,498.50 835.50,505.50 835.50,505.50
             835.50,505.50 846.50,508.50 846.50,508.50
             846.50,508.50 854.50,509.50 854.50,509.50
             854.50,509.50 865.50,512.50 865.50,512.50
             865.50,512.50 874.50,518.50 874.50,518.50
             874.50,518.50 879.50,529.50 879.50,529.50
             879.50,529.50 887.50,538.50 887.50,538.50
             887.50,538.50 901.50,538.50 901.50,538.50
             901.50,538.50 910.50,537.50 910.50,537.50
             910.50,537.50 921.50,535.50 921.50,535.50
             921.50,535.50 930.50,535.50 930.50,535.50
             930.50,535.50 939.50,543.50 939.50,543.50
             939.50,543.50 947.50,551.50 947.50,551.50
             947.50,551.50 957.50,563.50 957.50,563.50
             957.50,563.50 963.50,573.50 963.50,573.50
             963.50,573.50 971.50,579.50 971.50,579.50
             971.50,579.50 977.50,588.50 977.50,588.50
             977.50,588.50 987.50,600.50 987.50,600.50
             987.50,600.50 994.50,608.50 994.50,608.50
             994.50,608.50 1003.50,618.50 1003.50,618.50
             1003.50,618.50 1013.50,629.50 1013.50,629.50
             1013.50,629.50 1022.50,638.50 1022.50,638.50
             1022.50,638.50 1034.50,646.50 1034.50,646.50
             1034.50,646.50 1045.50,649.50 1045.50,649.50
             1045.50,649.50 1055.50,646.50 1055.50,646.50
             1055.50,646.50 1062.50,635.50 1062.50,635.50
             1062.50,635.50 1068.50,620.50 1068.50,620.50
             1068.50,620.50 1071.50,607.50 1071.50,607.50
             1071.50,607.50 1071.50,592.50 1071.50,592.50
             1071.50,592.50 1067.50,576.50 1067.50,576.50
             1067.50,576.50 1061.50,565.50 1061.50,565.50
             1061.50,565.50 1054.50,553.50 1054.50,553.50
             1054.50,553.50 1047.50,541.50 1047.50,541.50
             1047.50,541.50 1039.50,532.50 1039.50,532.50
             1039.50,532.50 1030.50,521.50 1030.50,521.50
             1030.50,521.50 1023.50,507.50 1023.50,507.50
             1023.50,507.50 1017.50,496.50 1017.50,496.50
             1017.50,496.50 1011.50,483.50 1011.50,483.50
             1011.50,483.50 1006.50,471.50 1006.50,471.50
             1006.50,471.50 999.50,456.50 999.50,456.50
             999.50,456.50 994.50,441.50 994.50,441.50
             994.50,441.50 987.50,426.50 987.50,426.50
             987.50,426.50 980.50,407.50 980.50,407.50
             980.50,407.50 972.50,386.50 972.50,386.50
             972.50,386.50 965.50,368.50 965.50,368.50
             965.50,368.50 959.50,350.50 959.50,350.50
             959.50,350.50 956.50,336.50 956.50,336.50
             956.50,336.50 954.50,323.50 954.50,323.50
             954.50,323.50 951.50,308.50 951.50,308.50
             951.50,308.50 943.50,297.50 943.50,297.50
             943.50,297.50 934.50,290.50 934.50,290.50
             934.50,290.50 927.50,284.50 927.50,284.50
             927.50,284.50 916.50,279.50 916.50,279.50
             916.50,279.50 905.50,274.50 905.50,274.50
             905.50,274.50 897.50,269.50 897.50,269.50
             897.50,269.50 890.50,263.50 890.50,263.50
             890.50,263.50 883.50,256.50 883.50,256.50
             883.50,256.50 873.50,251.50 873.50,251.50
             873.50,251.50 864.50,248.50 864.50,248.50
             864.50,248.50 859.50,240.50 859.50,240.50
             859.50,240.50 850.50,237.50 850.50,237.50
             850.50,237.50 841.50,237.50 841.50,237.50
             841.50,237.50 836.50,236.25 836.50,236.25
             836.50,236.25 840.50,234.00 840.50,234.00
             840.50,234.00 847.25,233.25 847.25,233.25
             847.25,233.25 852.00,233.00 852.00,233.00
             852.00,233.00 844.75,230.50 844.75,230.50
             844.75,230.50 849.75,228.50 849.75,228.50
             849.75,228.50 833.50,228.50 833.50,228.50
             833.50,228.50 836.00,224.50 836.00,224.50
             836.00,224.50 829.50,224.75 829.50,224.75
             829.50,224.75 835.25,220.00 835.25,220.00
             835.25,220.00 827.00,220.50 827.00,220.75
             827.00,221.00 820.25,225.75 820.00,225.75
             819.75,225.75 822.25,218.75 822.25,218.75
             822.25,218.75 811.50,220.75 811.50,220.75
             811.50,220.75 800.50,227.00 800.50,227.00
             800.50,227.00 790.50,236.25 790.50,236.25
             790.50,236.25 768.50,234.75 768.50,234.75
             768.50,234.75 761.75,232.00 761.75,232.00
             761.75,232.00 745.25,213.00 745.25,213.00
             745.25,213.00 734.50,205.83 734.50,205.83
             734.50,205.83 725.17,198.50 725.17,198.50
             725.17,198.50 713.17,187.17 713.17,187.17
             713.17,187.17 701.83,181.17 701.83,181.17
             701.83,181.17 687.83,174.50 687.83,174.50
             687.83,174.50 679.17,168.50 679.17,168.50
             679.17,168.50 666.50,161.17 666.50,161.17
             666.50,161.17 654.50,155.17 654.50,155.17
             654.50,155.17 644.50,146.50 644.50,146.50
             644.50,146.50 637.00,142.00 637.00,142.00
             637.00,142.00 627.00,137.50 627.00,137.50
             627.00,137.50 613.00,130.50 613.00,130.50
             613.00,130.50 595.50,124.50 595.50,124.50
             595.50,124.50 574.50,119.00 574.50,119.00
             574.50,119.00 555.00,114.50 555.00,114.50
             555.00,114.50 544.50,112.00 544.50,112.00
             544.50,112.00 534.00,108.50 534.00,108.50
             534.00,108.50 523.00,105.50 523.00,105.50
             523.00,105.50 511.00,103.50 511.00,103.50
             511.00,103.50 499.00,101.00 499.00,101.00
             499.00,101.00 485.00,98.50 485.00,98.50
             485.00,98.50 478.00,98.00 478.00,98.00
             478.00,98.00 476.00,92.00 476.00,92.00
             476.00,92.00 468.00,93.00 468.00,93.00
             468.00,93.00 463.50,79.50 463.50,79.50
             463.50,79.50 460.50,70.50 460.50,70.50
             460.50,70.50 464.00,62.00 464.00,62.00
             464.00,62.00 465.00,58.00 464.50,58.00
             464.00,58.00 456.50,54.00 456.00,54.00
             455.50,54.00 450.00,56.50 450.00,56.50
             450.00,56.50 440.50,52.00 440.50,52.00
             440.50,52.00 424.50,48.00 424.50,48.00
             424.50,48.00 413.50,43.50 413.50,43.50
             413.50,43.50 402.50,37.00 402.50,37.00
             402.50,37.00 391.00,37.00 391.00,37.00
             391.00,37.00 379.50,32.50 379.50,32.50
             379.50,32.50 364.00,26.50 364.00,26.50
             364.00,26.50 349.50,20.50 349.50,20.50
             349.50,20.50 332.50,14.50 332.50,14.50
             332.50,14.50 319.00,11.00 319.00,11.00
             319.00,11.00 311.50,9.00 311.50,9.00
             311.50,9.00 305.50,13.00 305.50,13.00
             305.50,13.00 299.50,18.50 299.50,18.50
             299.50,18.50 289.00,19.50 289.00,19.50
             289.00,19.50 283.00,23.00 283.00,23.00
             283.00,23.00 274.00,27.50 274.00,27.50
             274.00,27.50 268.00,30.00 268.00,30.00
             268.00,30.00 252.50,33.50 252.50,33.50
             252.50,33.50 239.00,35.00 239.00,35.00
             239.00,35.00 222.50,39.00 222.50,39.00
             222.50,39.00 213.50,42.00 213.50,42.00
             213.50,42.00 202.50,47.50 202.50,47.50
             202.50,47.50 192.50,51.00 192.50,51.00
             192.50,51.00 181.50,57.50 181.50,57.50
             181.50,57.50 171.00,64.50 171.00,64.50
             171.00,64.50 162.50,71.50 162.50,71.50
             162.50,71.50 156.00,76.50 156.00,76.50
             156.00,76.50 150.00,80.00 150.00,80.00
             150.00,80.00 143.50,87.00 143.50,87.00
             143.50,87.00 139.50,94.00 139.50,94.00
             139.50,94.00 134.00,101.00 134.00,101.00
             134.00,101.00 125.50,105.00 125.50,105.00
             125.50,105.00 118.00,112.00 118.00,112.00
             118.00,112.00 108.50,118.00 108.50,118.00
             108.50,118.00 102.00,124.00 102.00,124.00
             102.00,124.00 92.00,129.50 92.00,129.50
             92.00,129.50 82.50,132.50 82.50,132.50
             82.50,132.50 72.50,137.50 72.50,137.50
             72.50,137.50 63.00,144.00 63.00,144.00
             63.00,144.00 54.00,151.50 54.00,151.50
             54.00,151.50 42.50,158.50 42.50,158.50
             42.50,158.50 33.00,165.50 33.00,165.50
             33.00,165.50 22.50,174.00 22.50,174.00
             22.50,174.00 14.00,182.50 14.00,182.50
             14.00,182.50 10.00,190.50 10.00,190.50
             10.00,190.50 10.00,196.50 10.00,196.50
             10.00,196.50 13.00,200.50 13.00,200.50
             13.00,200.50 19.00,203.50 19.00,203.50
             19.00,203.50 28.00,202.00 28.00,202.00
             28.00,202.00 40.00,197.00 40.00,197.00
             40.00,197.00 46.50,191.50 46.50,191.50
             46.50,191.50 52.50,188.00 52.50,188.00
             52.50,188.00 62.00,183.00 62.00,183.00
             62.00,183.00 69.50,179.00 69.50,179.00
             69.50,179.00 78.00,172.50 78.00,172.50
             78.00,172.50 84.50,171.50 84.50,171.50
             84.50,171.50 92.50,174.00 92.50,174.00
             92.50,174.00 101.00,178.00 101.00,178.00
             101.00,178.00 105.00,182.50 105.00,182.50
             105.00,182.50 112.50,187.00 112.50,187.00
             112.50,187.00 118.50,192.00 118.50,192.00
             118.50,192.00 125.00,199.50 125.00,199.50
             125.00,199.50 133.00,204.50 133.00,204.50
             133.00,204.50 141.00,208.50 140.50,208.50
             140.00,208.50 148.00,209.50 148.00,209.50
             148.00,209.50 156.50,205.00 156.50,205.00
             156.50,205.00 161.50,201.00 161.50,201.00
             161.50,201.00 166.00,204.50 166.00,204.50
             166.00,204.50 173.50,206.50 173.50,206.50
             173.50,206.50 178.50,211.50 178.50,211.50
             178.50,211.50 184.50,214.00 184.50,214.00
             184.50,214.00 189.50,216.50 189.50,216.50
             189.50,216.50 189.50,221.00 189.50,221.00
             189.50,221.00 195.50,222.00 195.50,222.00
             195.50,222.00 205.00,224.00 205.00,224.00
             205.00,224.00 213.00,227.00 213.00,227.00
             213.00,227.00 218.50,227.00 218.50,227.00
             218.50,227.00 221.00,234.50 221.00,234.50
             221.00,234.50 223.00,239.00 223.00,239.00
             223.00,239.00 230.00,243.00 230.50,243.00
             231.00,243.00 239.00,243.50 239.00,243.50
             239.00,243.50 250.50,245.00 250.50,245.00
             250.50,245.00 254.00,249.00 254.00,249.00
             254.00,249.00 257.00,255.00 257.00,255.00
             257.00,255.00 259.50,259.50 259.50,259.50 Z" />
</svg>
